<svg xmlns="http://www.w3.org/2000/svg" width="114" height="114" viewBox="0 0 114 114">
  <g id="Group_20774" data-name="Group 20774" transform="translate(-408.023 -11650.023)">
    <circle id="Ellipse_3" data-name="Ellipse 3" cx="57" cy="57" r="57" transform="translate(408.023 11650.023)" fill="rgba(0,50,210,0.1)"/>
    <g id="five-star-hotel-icon" transform="translate(439.169 11679.616)">
      <path id="Path_23814" data-name="Path 23814" d="M31.9,0l1.178,2.881,3.1.232L33.8,5.125l.74,3.024-2.65-1.637-2.65,1.637.74-3.024L27.61,3.113l3.1-.232L31.9,0ZM0,52.852H5.433v-36.2a.627.627,0,0,1,.629-.624c1.914,0,4.358,0,7.106,0l.575-2.36L11.365,11.66l3.1-.232,1.178-2.881h0l1.178,2.881,3.1.232-2.377,2.012.58,2.364,5.852,0,.58-2.369L22.186,11.66l3.1-.232,1.178-2.881h0l1.178,2.881,3.1.232-2.377,2.012.58,2.373,5.848,0,.584-2.382-2.377-2.012,3.122-.232,1.178-2.881h0l1.178,2.881,3.1.232-2.377,2.012.584,2.386c2.351,0,4.411,0,6.008,0a.623.623,0,0,1,.624.624v36.17h5.433v1.963H0V52.852ZM14.077,16.026l3.158,0-1.579-.977-1.579.972Zm10.812.013,3.189,0-1.6-.986-1.592.981Zm10.812.009,3.22,0-1.615-1-1.606.995ZM21.067,0l1.178,2.881,3.1.232L22.971,5.125l.74,3.024-2.65-1.637-2.65,1.637.74-3.024L16.776,3.113l3.1-.232L21.067,0ZM11.816,44.694h3.555a.209.209,0,0,1,.21.21v3.582a.209.209,0,0,1-.21.21H11.816a.209.209,0,0,1-.21-.21V44.9a.209.209,0,0,1,.21-.21Zm24.434,0h3.555a.209.209,0,0,1,.21.21v3.582a.209.209,0,0,1-.21.21H36.25a.209.209,0,0,1-.21-.21V44.9a.2.2,0,0,1,.21-.21ZM30.032,31.785h3.555a.209.209,0,0,1,.21.21v3.582a.209.209,0,0,1-.21.21H30.032a.209.209,0,0,1-.21-.21V31.995a.209.209,0,0,1,.21-.21Zm6.218,0h3.555a.209.209,0,0,1,.21.21v3.582a.209.209,0,0,1-.21.21H36.25a.209.209,0,0,1-.21-.21V31.995a.2.2,0,0,1,.21-.21Zm0,6.454h3.555a.209.209,0,0,1,.21.21v3.586a.209.209,0,0,1-.21.21H36.25a.209.209,0,0,1-.21-.21V38.449a.2.2,0,0,1,.21-.21Zm-6.218,0h3.555a.209.209,0,0,1,.21.21v3.586a.209.209,0,0,1-.21.21H30.032a.209.209,0,0,1-.21-.21V38.449a.209.209,0,0,1,.21-.21Zm0,6.454h3.555a.209.209,0,0,1,.21.21v3.582a.209.209,0,0,1-.21.21H30.032a.209.209,0,0,1-.21-.21V44.9a.209.209,0,0,1,.21-.21Zm-12-12.909h3.555a.209.209,0,0,1,.21.21v3.582a.209.209,0,0,1-.21.21H18.029a.209.209,0,0,1-.21-.21V31.995a.209.209,0,0,1,.21-.21Zm-6.213,0h3.555a.209.209,0,0,1,.21.21v3.582a.209.209,0,0,1-.21.21H11.816a.209.209,0,0,1-.21-.21V31.995a.209.209,0,0,1,.21-.21Zm0,6.454h3.555a.209.209,0,0,1,.21.21v3.586a.209.209,0,0,1-.21.21H11.816a.209.209,0,0,1-.21-.21V38.449a.209.209,0,0,1,.21-.21Zm6.213,0h3.555a.209.209,0,0,1,.21.21v3.586a.209.209,0,0,1-.21.21H18.029a.209.209,0,0,1-.21-.21V38.449a.209.209,0,0,1,.21-.21Zm0,6.454h3.555a.209.209,0,0,1,.21.21v3.582a.209.209,0,0,1-.21.21H18.029a.209.209,0,0,1-.21-.21V44.9a.209.209,0,0,1,.21-.21ZM10.112,19.751H12.1V22.07h2.177V19.751h2v6.637h-2V23.7H12.1v2.69H10.112V19.751Zm7.235,3.323a3.463,3.463,0,0,1,.879-2.529,3.266,3.266,0,0,1,2.453-.905,3.317,3.317,0,0,1,2.484.892,3.392,3.392,0,0,1,.87,2.489,4.191,4.191,0,0,1-.379,1.909,2.763,2.763,0,0,1-1.1,1.16,3.543,3.543,0,0,1-1.793.415,4,4,0,0,1-1.806-.357A2.74,2.74,0,0,1,17.8,25.014a3.831,3.831,0,0,1-.451-1.94Zm1.989.009a2.289,2.289,0,0,0,.361,1.445,1.232,1.232,0,0,0,.99.437,1.208,1.208,0,0,0,.995-.433,2.5,2.5,0,0,0,.352-1.543,2.1,2.1,0,0,0-.366-1.369,1.252,1.252,0,0,0-.995-.433,1.215,1.215,0,0,0-.972.437,2.322,2.322,0,0,0-.366,1.459Zm5.08-3.332h6.062v1.641H28.444v5H26.455v-5H24.421l0-1.641Zm6.954,0H36.7v1.418H33.369v1.057H36.46v1.356H33.369v1.307H36.8v1.5H31.37V19.751Zm6.5,0h1.989v5h3.113v1.633h-5.1V19.751ZM27.526,29.024h15a.5.5,0,0,1,.451.535V51.184a.5.5,0,0,1-.451.535h-15a.5.5,0,0,1-.451-.535V29.564a.5.5,0,0,1,.451-.54ZM9.278,28.993h15a.5.5,0,0,1,.451.535V51.184a.5.5,0,0,1-.451.535h-15a.5.5,0,0,1-.451-.535V29.528a.5.5,0,0,1,.451-.535Z" fill="#0351fc" fill-rule="evenodd"/>
    </g>
  </g>
</svg>
