<svg xmlns="http://www.w3.org/2000/svg" width="114" height="114" viewBox="0 0 114 114">
  <g id="Group_20772" data-name="Group 20772" transform="translate(-408.023 -11650.023)">
    <circle id="Ellipse_3" data-name="Ellipse 3" cx="57" cy="57" r="57" transform="translate(408.023 11650.023)" fill="rgba(0,50,210,0.1)"/>
    <g id="city-icon" transform="translate(435.854 11678.103)">
      <path id="Path_23813" data-name="Path 23813" d="M4.689,47.649H12.2a.148.148,0,0,1,.148.148v2.152a.148.148,0,0,1-.148.148H4.689a.148.148,0,0,1-.148-.148V47.8a.148.148,0,0,1,.148-.148Zm41.48-15H53.68a.148.148,0,0,1,.148.148v2.147a.148.148,0,0,1-.148.148H46.169a.148.148,0,0,1-.148-.148V32.8a.152.152,0,0,1,.148-.148Zm0,15.113H53.68a.148.148,0,0,1,.148.148v2.152a.148.148,0,0,1-.148.148H46.169a.148.148,0,0,1-.148-.148V47.911a.152.152,0,0,1,.148-.148Zm0-5.374H53.68a.148.148,0,0,1,.148.148v2.152a.148.148,0,0,1-.148.148H46.169a.148.148,0,0,1-.148-.148V42.537a.152.152,0,0,1,.148-.148Zm0-4.87H53.68a.148.148,0,0,1,.148.148v2.152a.148.148,0,0,1-.148.148H46.169a.148.148,0,0,1-.148-.148V37.667a.152.152,0,0,1,.148-.148ZM41.247,56.47V10.02L17.137,1.371v55.1H15.766V24.6L1.371,20.669v35.8ZM.685,57.841A.686.686,0,0,1,0,57.155V20.3a1.024,1.024,0,0,1,.3-.714,1.007,1.007,0,0,1,.714-.3l14.756,3.932V1.2A1.191,1.191,0,0,1,16.97,0L41.413,8.649a1.213,1.213,0,0,1,1.209,1.2V23.225l14.861-3.932a1,1,0,0,1,.709.3l0,0a1,1,0,0,1,.3.709V57.155a.686.686,0,0,1-.685.685H.685ZM34.116,47.292h4.041a.116.116,0,0,1,.114.114v4.041a.116.116,0,0,1-.114.114H34.116A.116.116,0,0,1,34,51.448V47.406a.116.116,0,0,1,.114-.114Zm-6.945,0h4.041a.116.116,0,0,1,.114.114v4.041a.116.116,0,0,1-.114.114H27.171a.116.116,0,0,1-.114-.114V47.406a.116.116,0,0,1,.114-.114Zm-6.945,0h4.041a.116.116,0,0,1,.114.114v4.041a.116.116,0,0,1-.114.114H20.226a.116.116,0,0,1-.114-.114V47.406a.116.116,0,0,1,.114-.114Zm-15.6-4.846h7.569c.062,0,.114.038.114.081v2.237c0,.043-.052.086-.114.086H4.622c-.062,0-.114-.038-.114-.086V42.527c0-.043.052-.081.114-.081ZM20.212,6.5l17.965,6.183a.551.551,0,0,1,.547.547V27.28a.551.551,0,0,1-.547.547H20.212a.551.551,0,0,1-.547-.547V7.045a.544.544,0,0,1,.547-.547ZM4.622,37.558h7.569c.062,0,.114.038.114.086v2.237c0,.043-.052.086-.114.086H4.622c-.062,0-.114-.038-.114-.086V37.643c0-.052.052-.086.114-.086Zm0-4.893h7.569c.062,0,.114.038.114.086v2.237c0,.043-.052.086-.114.086H4.622c-.062,0-.114-.038-.114-.086V32.75c0-.048.052-.086.114-.086ZM34.116,40.2h4.041a.116.116,0,0,1,.114.114V44.36a.116.116,0,0,1-.114.114H34.116A.116.116,0,0,1,34,44.36V40.318a.116.116,0,0,1,.114-.114Zm-6.945,0h4.041a.116.116,0,0,1,.114.114V44.36a.116.116,0,0,1-.114.114H27.171a.116.116,0,0,1-.114-.114V40.318a.116.116,0,0,1,.114-.114Zm-6.945,0h4.041a.116.116,0,0,1,.114.114V44.36a.116.116,0,0,1-.114.114H20.226a.116.116,0,0,1-.114-.114V40.318a.116.116,0,0,1,.114-.114Zm13.89-7.845h4.041a.116.116,0,0,1,.114.114v4.041a.116.116,0,0,1-.114.114H34.116A.116.116,0,0,1,34,36.515V32.474a.116.116,0,0,1,.114-.114Zm-6.945,0h4.041a.116.116,0,0,1,.114.114v4.041a.116.116,0,0,1-.114.114H27.171a.116.116,0,0,1-.114-.114V32.474a.116.116,0,0,1,.114-.114Zm-6.945,0h4.041a.116.116,0,0,1,.114.114v4.041a.116.116,0,0,1-.114.114H20.226a.116.116,0,0,1-.114-.114V32.474a.116.116,0,0,1,.114-.114Z" fill="#0351fc" fill-rule="evenodd"/>
    </g>
  </g>
</svg>
