<svg xmlns="http://www.w3.org/2000/svg" width="114" height="114" viewBox="0 0 114 114">
  <g id="Group_20771" data-name="Group 20771" transform="translate(-408.023 -11650.023)">
    <circle id="Ellipse_3" data-name="Ellipse 3" cx="57" cy="57" r="57" transform="translate(408.023 11650.023)" fill="#0351fc"/>
    <g id="village-icon" transform="translate(431.659 11680.938)">
      <path id="Path_23812" data-name="Path 23812" d="M39.27,51.7H62.279a.706.706,0,0,0,.708-.708V32.878a3.154,3.154,0,0,0,2.15.1,2.515,2.515,0,0,0,1.187-.833,2.574,2.574,0,0,0,.544-1.339,3.408,3.408,0,0,0-.811-2.5h0a.569.569,0,0,0-.114-.114l-2.036-1.491V18.039H58.262v4.545L45.3,13.108a.715.715,0,0,0-.914-.038l-7.762,5.656L24.4,9.825a.767.767,0,0,0-.991.044L1.03,26.226a.682.682,0,0,0-.125.125h0a3.652,3.652,0,0,0-.882,2.705A2.791,2.791,0,0,0,.617,30.5a2.75,2.75,0,0,0,1.285.9,3.41,3.41,0,0,0,2.33-.109V50.923A.767.767,0,0,0,5,51.69H39.27Zm4.273-17.141H46.5V49.91H61.207V32.138a1.013,1.013,0,0,1,.022-.185L44.692,20.1l-3.086,2.259,5.215,3.8h0c.033.027.06.054.093.082a3.455,3.455,0,0,1,.98,3.19,2.946,2.946,0,0,1-1.862,2.085,3.2,3.2,0,0,1-2.493-.163v3.206ZM36.657,2.809a3.773,3.773,0,1,1-2.673,1.105,3.782,3.782,0,0,1,2.673-1.105ZM33.288,1.415a.422.422,0,1,1,.729-.425l.544.936a.422.422,0,1,1-.729.425l-.544-.936ZM36.325.425a.425.425,0,0,1,.849,0V1.508a.425.425,0,0,1-.849,0V.425Zm3.125.659a.423.423,0,0,1,.735.419l-.544.936a.423.423,0,0,1-.735-.419l.544-.936Zm2.379,2.134a.422.422,0,1,1,.425.729l-.942.544a.422.422,0,1,1-.425-.729l.942-.544Zm1,3.037a.425.425,0,0,1,0,.849H41.741a.425.425,0,0,1,0-.849Zm-.659,3.125a.423.423,0,1,1-.419.735l-.942-.544a.423.423,0,0,1,.419-.735l.942.544Zm-2.134,2.379a.419.419,0,0,1-.152.577.424.424,0,0,1-.577-.152l-.544-.936a.422.422,0,1,1,.729-.425l.544.936Zm-3.037,1a.425.425,0,1,1-.849,0V11.671a.425.425,0,1,1,.849,0v1.083ZM33.87,12.09a.423.423,0,0,1-.735-.419l.544-.936a.423.423,0,0,1,.735.419l-.544.936ZM31.491,9.961a.422.422,0,0,1-.425-.729L32,8.688a.422.422,0,1,1,.425.729l-.936.544Zm-1-3.037a.425.425,0,0,1,0-.849h1.083a.425.425,0,0,1,0,.849Zm.659-3.13a.423.423,0,0,1,.419-.735l.942.544a.423.423,0,1,1-.419.735l-.942-.544ZM17.9,34.789H30.076V49.763H41.605V30.439a.676.676,0,0,1,.016-.147L24.061,17.441,6.136,30.3a.81.81,0,0,1,.027.2V49.758H17.9V34.789ZM20.55,22.895h3.135V26.1H20.55V22.895Zm7.4,4.268H24.818v3.206h3.135V27.163Zm-7.4,0h3.135v3.206H20.55V27.163Zm7.4-4.268H24.818V26.1h3.135V22.895Z" transform="translate(-0.003)" fill="#fff" fill-rule="evenodd"/>
    </g>
  </g>
</svg>
