<svg xmlns="http://www.w3.org/2000/svg" width="114" height="114" viewBox="0 0 114 114">
  <g id="Group_20773" data-name="Group 20773" transform="translate(-408.023 -11650.023)">
    <circle id="Ellipse_3" data-name="Ellipse 3" cx="57" cy="57" r="57" transform="translate(408.023 11650.023)" fill="rgba(0,50,210,0.1)"/>
    <path id="bungalow-villa-icon" d="M18.188,49.025h6.376V38.065H35.738v10.96h6.376V12.667L29.871,3.974l-11.683,8.36Zm24.957,0H56.76V23.053L43.145,20.341Zm0-31.377,16.308,3.321a1.3,1.3,0,1,1-.908,2.439l-.753-.15v26.8H2.366V23.3l-.608.1A1.3,1.3,0,0,1,.85,20.968L17.156,18.1V13.073l-1.072.768a1.783,1.783,0,1,1-2.067-2.905L28.8.357A1.783,1.783,0,0,1,30.9.333L45.717,10.852a1.783,1.783,0,1,1-2.067,2.905l-.505-.358v4.248ZM17.156,20.791,3.4,23.129v25.9h13.76V20.791ZM30.624,39.012V49.025h4.167V39.012Zm-.947,10.013V39.012H25.511V49.025h4.167ZM34.791,21.75H30.624v8.457h4.167Zm-5.114,0H25.511v8.457h4.167V21.75ZM25.511,20.8h4.167V13.525a4.656,4.656,0,0,0-4.167,4.617Zm5.114,0h4.167V18.142a4.658,4.658,0,0,0-4.167-4.617V20.8Zm-.473-8.25a5.6,5.6,0,0,1,5.587,5.588V31.154H24.564V18.142a5.6,5.6,0,0,1,5.587-5.588ZM13.419,44.034H10.474v2.789h2.945V44.034Zm-3.614,0H6.861v2.789H9.805Zm-2.944-.669H9.805v-2.79H6.861Zm3.613,0h2.945v-2.79H10.474v2.79Zm3.614-3.124v7.252h-7.9V39.906h7.9v.334Zm-.669-8.349H10.474v4.032h2.945V31.892Zm-3.614,0H6.861v4.032H9.805Zm-2.944-.669H9.805V26.08a3.29,3.29,0,0,0-2.944,3.262Zm3.613,0h2.945V29.342a3.292,3.292,0,0,0-2.945-3.262Zm-.334-5.828a3.959,3.959,0,0,1,3.949,3.948v7.251h-7.9V29.342a3.959,3.959,0,0,1,3.948-3.948ZM51.432,14.531H55.4v4.826l-3.971-.808V14.531Zm1.651,29.5H50.139v2.789h2.944Zm-3.613,0H46.526v2.789H49.47Zm-2.944-.669H49.47v-2.79H46.526v2.79Zm3.613,0h2.944v-2.79H50.139v2.79Zm3.613-3.124v7.252h-7.9V39.906h7.9v.334Zm-.669-8.349H50.139v4.032h2.944Zm-3.613,0H46.526v4.032H49.47Zm-2.944-.669H49.47V26.08a3.29,3.29,0,0,0-2.944,3.262Zm3.613,0h2.944V29.342a3.293,3.293,0,0,0-2.944-3.262ZM49.8,25.394a3.957,3.957,0,0,1,3.948,3.948v7.251h-7.9V29.342A3.957,3.957,0,0,1,49.8,25.394Z" transform="translate(434.872 11681.994)" fill="#0351fc" stroke="#0351fc" stroke-width="0.5"/>
  </g>
</svg>
