<svg xmlns="http://www.w3.org/2000/svg" width="85.311" height="84.972" viewBox="0 0 85.311 84.972">
  <g id="_2hearts" data-name="2hearts" transform="translate(-0.021 0.041)">
    <path id="Path_23810" data-name="Path 23810" d="M54.868,25.244a16.42,16.42,0,0,0-24.3.83,2.4,2.4,0,0,1-3.319.237A16.475,16.475,0,0,0,3.421,48.833a15.418,15.418,0,0,0,5.216,4.386l22.4,15.529a1.991,1.991,0,0,0,2.608-.237L53.327,49.782A15.867,15.867,0,0,0,57.594,44.8,16.728,16.728,0,0,0,54.868,25.244Z" transform="translate(0 15.803)"/>
    <path id="Path_23811" data-name="Path 23811" d="M65.4,8.33a12.266,12.266,0,0,0-17.781-3.2,1.732,1.732,0,0,1-2.489-.356A12.387,12.387,0,0,0,27.942,2.4a12.611,12.611,0,0,0-3.556,15.173,11.778,11.778,0,0,0,3.082,4.03l13.869,14.7a1.61,1.61,0,0,0,1.9.237l17.188-10.55a13.148,13.148,0,0,0,3.912-2.964A12.5,12.5,0,0,0,65.4,8.33Z" transform="translate(18.035)"/>
  </g>
</svg>
