<svg xmlns="http://www.w3.org/2000/svg" width="20.91" height="15.013" viewBox="0 0 20.91 15.013">
  <g id="couple-family-icon" transform="translate(0.001 -0.019)" opacity="0.5">
    <path id="Path_23816" data-name="Path 23816" d="M5.189,10.175a2.265,2.265,0,0,0,4.137.01,4.527,4.527,0,0,1-.548-.66L8.7,9.407a2.153,2.153,0,0,1-1.443.465,2.194,2.194,0,0,1-1.611-.7c-.06.163-.134.359-.214.543a3.046,3.046,0,0,1-.24.463Zm12.459.25c1.857.774,3.031,1.775,3.237,3.951.058.614.053.587-.536.6-6.466.128-13.115,0-19.579,0-1.407-.107-.539-2.541-.116-3.1a2.3,2.3,0,0,1,.737-.623c.836-.466,2.666-.621,3.5-1.247A2.767,2.767,0,0,0,5.1,9.591c.1-.238.2-.5.26-.676a8.533,8.533,0,0,1-.681-.968L3.995,6.853a1.986,1.986,0,0,1-.39-1A.785.785,0,0,1,3.673,5.5a.654.654,0,0,1,.237-.274.808.808,0,0,1,.167-.085,17.519,17.519,0,0,1-.032-1.967,2.573,2.573,0,0,1,.085-.446,2.626,2.626,0,0,1,1.162-1.48A3.634,3.634,0,0,1,6.266.81C6.484.749,6.081.05,6.306.028a5.59,5.59,0,0,1,3.621,1.71A2.672,2.672,0,0,1,10.6,3.424l-.044,1.782h0a.5.5,0,0,1,.362.374,1.546,1.546,0,0,1-.189.939h0a.141.141,0,0,1-.012.022L9.933,7.833a6.709,6.709,0,0,1-.961,1.326c.034.049.068.1.1.15a4.568,4.568,0,0,0,.512.659A.119.119,0,0,1,9.608,10a8.217,8.217,0,0,0,2.3.927c.354-.185.728-.359,1.145-.531.087-.08.192-.175.3-.274a5.162,5.162,0,0,0,.677-.657c-.1-.1-.2-.209-.288-.317l-.39-.451-.291.007-.555.015a3.788,3.788,0,0,1-.4-2.4A4.065,4.065,0,0,1,13.716,3.4a3.241,3.241,0,0,1,3.071-.087,4.512,4.512,0,0,1,1.355,5.374h-.575l-.037.044-.051.06-.25.3a4.492,4.492,0,0,1-.466.5,6.468,6.468,0,0,0,.653.618c.082.075.162.145.233.209ZM4.126,5.543a.264.264,0,0,0-.1.114.409.409,0,0,0-.032.184,1.643,1.643,0,0,0,.328.8l0,.005h0l.687,1.094a5.894,5.894,0,0,0,.924,1.215,1.89,1.89,0,0,0,1.319.531,1.94,1.94,0,0,0,1.4-.555,6.063,6.063,0,0,0,.951-1.3l.774-1.276a1.226,1.226,0,0,0,.163-.679c-.044-.174-.555-.107-.725-.131l.265-1.174c-1.969.31-3.442-1.152-5.524-.293l.15,1.385c-.208.007-.385-.054-.582.078ZM14.251,9.671a5.91,5.91,0,0,1-.7.684l-.09.08c.078,1.467,3.325,1.906,3.679-.048a5.789,5.789,0,0,1-.618-.592l-.012.009a1.844,1.844,0,0,1-2.064.012,2.051,2.051,0,0,1-.194-.145ZM13.5,8.492a4,4,0,0,1,.953-4.261A2.889,2.889,0,0,0,16,5.956a8.1,8.1,0,0,1,1.161,1.067c.066-.272-.187-.6-.493-.946a1.492,1.492,0,0,1,.73.715,1.991,1.991,0,0,1,.141,1.283,2.938,2.938,0,0,1-.136.419.084.084,0,0,0-.032.027,5.726,5.726,0,0,1-.992,1.069,1.82,1.82,0,0,1-1.809.012,3.151,3.151,0,0,1-.614-.589l-.415-.488a.113.113,0,0,0-.039-.032Z" fill-rule="evenodd"/>
  </g>
</svg>
