<svg xmlns="http://www.w3.org/2000/svg" width="22.021" height="18.005" viewBox="0 0 22.021 18.005">
  <g id="double-bed-icon" transform="translate(0.25 0.25)" opacity="0.5">
    <path id="Path_23102" data-name="Path 23102" d="M.739,11.8H20.761V10.98a1.42,1.42,0,0,0-.107-.546,1.457,1.457,0,0,0-.317-.466,1.806,1.806,0,0,0-.275-.224,2.151,2.151,0,0,0-.324-.179q-.46-.1-.914-.189t-.92-.168L17.866,9.2l-.447-.074-.45-.07h0q-1.608-.2-3.207-.312t-3.188-.107c-.627,0-1.252.011-1.878.035s-1.247.06-1.872.109h0c-.585.054-1.168.123-1.753.2s-1.168.172-1.757.275l-.065.016a.131.131,0,0,1-.035.005.19.19,0,0,1-.032,0c-.275.049-.557.1-.848.161s-.564.116-.844.177a1.938,1.938,0,0,0-.2.128,1.671,1.671,0,0,0-.179.152h0a1.253,1.253,0,0,0-.273.4,1.209,1.209,0,0,0-.093.471V11.8ZM2.487,0H18.775a1.564,1.564,0,0,1,.6.119,1.617,1.617,0,0,1,.511.342,1.571,1.571,0,0,1,.461,1.112V9.05a2.363,2.363,0,0,1,.257.173,2.616,2.616,0,0,1,.256.222,2.18,2.18,0,0,1,.478.706,2.133,2.133,0,0,1,.163.83v1.067c.005.018.011.035.014.053v0a.421.421,0,0,1,.005.065.3.3,0,0,1-.007.068h0c0,.018-.009.035-.014.053v4.845a.371.371,0,0,1-.37.37h-.762a.37.37,0,0,1-.228-.079.361.361,0,0,1-.13-.2,5.047,5.047,0,0,0-.434-.97,1.7,1.7,0,0,0-.5-.545,1.756,1.756,0,0,0-.683-.25,5.593,5.593,0,0,0-.983-.063l-13.97.018H3.437a1.8,1.8,0,0,0-.69.1,1.2,1.2,0,0,0-.466.326,2.371,2.371,0,0,0-.37.594,8.114,8.114,0,0,0-.31.813h0a.356.356,0,0,1-.135.182.372.372,0,0,1-.2.07.048.048,0,0,1-.016,0H.37a.371.371,0,0,1-.37-.37v-6.36a1.953,1.953,0,0,1,.147-.755,2.01,2.01,0,0,1,.436-.643,2.1,2.1,0,0,1,.172-.154C.807,9.182.86,9.141.916,9.1V1.557a1.525,1.525,0,0,1,.119-.6A1.571,1.571,0,0,1,1.888.119,1.555,1.555,0,0,1,2.487,0ZM18.775.739H2.487A.859.859,0,0,0,2.165.8a.841.841,0,0,0-.271.179.822.822,0,0,0-.179.263.839.839,0,0,0-.06.314V8.749c.053-.018.105-.032.159-.046.086-.023.172-.042.257-.056l.389-.068c.105-.018.217-.037.333-.054V6.689a2.047,2.047,0,0,1,.156-.783A2.066,2.066,0,0,1,4.064,4.792a2.047,2.047,0,0,1,.783-.156H8.318a2.047,2.047,0,0,1,.783.156,2.066,2.066,0,0,1,1.114,1.114,2.047,2.047,0,0,1,.156.783V7.861c.123,0,.245,0,.37,0V6.689a2.047,2.047,0,0,1,.156-.783A2.066,2.066,0,0,1,12.01,4.792a2.047,2.047,0,0,1,.783-.156h3.472a2.047,2.047,0,0,1,.783.156,2.066,2.066,0,0,1,1.114,1.114,2.047,2.047,0,0,1,.156.783V8.5c.131.019.271.042.422.067.166.026.326.053.48.079.079.014.159.03.24.049.051.012.1.025.147.039V1.573a.832.832,0,0,0-.063-.317A.851.851,0,0,0,19.092.8a.832.832,0,0,0-.317-.063ZM7.568,7.98c.352-.026.706-.049,1.065-.067.331-.018.666-.03,1-.039V6.689a1.291,1.291,0,0,0-.1-.5,1.312,1.312,0,0,0-.287-.427,1.35,1.35,0,0,0-.427-.287,1.291,1.291,0,0,0-.5-.1H4.847a1.291,1.291,0,0,0-.5.1,1.312,1.312,0,0,0-.427.287,1.35,1.35,0,0,0-.287.427,1.291,1.291,0,0,0-.1.5V8.407c.284-.042.571-.081.865-.119q.476-.06.944-.112c.121-.014.25-.03.385-.044s.257-.026.4-.04c.238-.023.475-.044.708-.063S7.316,8,7.568,7.98Zm3.911-.116q.318.005.636.016c.235.007.469.018.7.028h0q.575.021,1.123.053c.364.021.72.047,1.06.077.494.044.972.1,1.426.158.406.056.792.119,1.153.189v-1.7a1.291,1.291,0,0,0-.1-.5,1.312,1.312,0,0,0-.287-.427,1.35,1.35,0,0,0-.427-.287,1.291,1.291,0,0,0-.5-.1H12.8a1.291,1.291,0,0,0-.5.1,1.312,1.312,0,0,0-.427.287,1.35,1.35,0,0,0-.287.427,1.291,1.291,0,0,0-.1.5V7.864Zm9.283,4.675H.739v4.226H.99A6.978,6.978,0,0,1,1.3,16a2.905,2.905,0,0,1,.429-.65,1.926,1.926,0,0,1,.716-.513,2.507,2.507,0,0,1,1.007-.163l13.958-.018a6.291,6.291,0,0,1,1.172.086,2.4,2.4,0,0,1,.9.35,2.322,2.322,0,0,1,.645.66,4.967,4.967,0,0,1,.5,1.009h.133V12.539Z" transform="translate(0 0)" stroke="#000" stroke-width="0.5"/>
  </g>
</svg>
