<svg xmlns="http://www.w3.org/2000/svg" width="87.35" height="67.789" viewBox="0 0 87.35 67.789">
  <g id="car" transform="translate(0 -5.375)">
    <path id="Path_23808" data-name="Path 23808" d="M43.124,5.4c-10.173-.149-24.306.069-27.215,7.885L8.76,30.062a2.49,2.49,0,0,0-1.2-.756L4.684,28.5A2.5,2.5,0,0,0,1.6,30.228L.095,35.56a2.5,2.5,0,0,0,1.732,3.088l2.88.81c.1.026.192.035.288.052A11.7,11.7,0,0,0,4.1,43.285v19.5A1.525,1.525,0,0,0,5.187,64.46v5.195A3.5,3.5,0,0,0,8.7,73.164h9.412a3.5,3.5,0,0,0,3.509-3.509v-5H65.733v5a3.5,3.5,0,0,0,3.51,3.509h9.412a3.5,3.5,0,0,0,3.511-3.509V64.46a1.523,1.523,0,0,0,1.083-1.679v-19.5a11.713,11.713,0,0,0-.893-3.775,2.38,2.38,0,0,0,.288-.052l2.88-.809a2.5,2.5,0,0,0,1.731-3.088l-1.5-5.332A2.5,2.5,0,0,0,82.667,28.5l-2.878.81a2.494,2.494,0,0,0-1.2.756l-7.15-16.775C68.324,5.352,53.3,5.551,43.123,5.4Zm29.139,25.72c.169.5-.337.839-.867.869,0,0-1.733.147-4.123.34a11.884,11.884,0,0,0-22.338,1.277c-.405.005-.876.023-1.253.023-9.256,0-27.724-1.64-27.724-1.64-.53-.031-1.037-.366-.867-.869C22.2,9.44,22.414,11.07,43.282,11.3S64.272,9.976,72.262,31.121ZM56.331,29.185a7.762,7.762,0,0,1,6.505,3.486c-4.18.311-8.99.628-13.473.812a7.756,7.756,0,0,1,6.968-4.3ZM8.217,36.222c.063.093.124.186.193.277H8.14Zm4.624,5.445c1.831-.031,11.66,3.278,11.66,3.278,1.227.345,2.308,2.665,2.3,3.94-.018,4.3-11.1,2.8-15.6,2.821a2.3,2.3,0,0,1-2.3-2.3V43.969c0-1.275,2.11-2.271,3.941-2.3Zm61.668,0c1.831.03,3.941,1.026,3.941,2.3v5.438a2.3,2.3,0,0,1-2.3,2.3c-4.5-.017-15.583,1.473-15.6-2.821-.006-1.275,1.074-3.6,2.3-3.941,0,0,9.829-3.309,11.66-3.278Z" transform="translate(0 0)"/>
  </g>
</svg>
