<svg xmlns="http://www.w3.org/2000/svg" width="106" height="106" viewBox="0 0 106 106">
  <g id="Group_21894" data-name="Group 21894" transform="translate(-407.908 -11649.908)">
    <circle id="Ellipse_3" data-name="Ellipse 3" cx="53" cy="53" r="53" transform="translate(407.908 11649.908)" fill="rgba(0,50,210,0.1)"/>
    <path id="new-product-icon_1_" data-name="new-product-icon (1)" d="M24.005,38.457,7.2,29.626,2.751,35.008c5.96,3.151,11.8,6.306,17.767,9.476l3.487-6.008ZM10.924,7.249h.118a3.421,3.421,0,0,1,1.066-2.511,3.421,3.421,0,0,1,2.5-1.066v-.1a3.407,3.407,0,0,1-2.5-1.071A3.44,3.44,0,0,1,11.042,0h-.118A3.421,3.421,0,0,1,9.858,2.5a3.421,3.421,0,0,1-2.5,1.071v.114a3.44,3.44,0,0,1,2.5,1.057,3.421,3.421,0,0,1,1.066,2.5ZM6.437,12.972h.095a2.876,2.876,0,0,1,.9-2.075,2.885,2.885,0,0,1,2.1-.9V9.9a2.885,2.885,0,0,1-2.1-.9,2.885,2.885,0,0,1-.9-2.1H6.447a2.881,2.881,0,0,1-.9,2.1,2.843,2.843,0,0,1-2.094.9V10a2.876,2.876,0,0,1,2.094.9,2.881,2.881,0,0,1,.9,2.1Zm32.5-5.685h-.09a3.425,3.425,0,0,0-1.071-2.5,3.421,3.421,0,0,0-2.5-1.066V3.587a3.407,3.407,0,0,0,2.5-1.071A3.444,3.444,0,0,0,38.849,0h.114a3.407,3.407,0,0,0,1.071,2.5,3.407,3.407,0,0,0,2.5,1.071v.114a3.425,3.425,0,0,0-2.5,1.071,3.407,3.407,0,0,0-1.071,2.5Zm4.5,5.406h-.09a2.767,2.767,0,0,0-2.7-2.7V9.9a2.582,2.582,0,0,0,1.9-.81,2.592,2.592,0,0,0,.81-1.9h.09a2.606,2.606,0,0,0,.805,1.9,2.606,2.606,0,0,0,1.9.805v.09a2.762,2.762,0,0,0-2.7,2.7ZM25.157,5.212l3.184,7.434,8.078.725a.633.633,0,0,1,.37,1.118h0l-6.117,5.344,1.805,7.9a.725.725,0,0,1,0,.142.64.64,0,0,1-.5.63h-.137a.668.668,0,0,1-.365-.1l-6.927-4.127-6.955,4.15A.644.644,0,0,1,16.7,28.2a.625.625,0,0,1-.09-.332.773.773,0,0,1,0-.147h0l1.81-7.9-6.1-5.321a.63.63,0,0,1,.4-1.118l8.054-.72,3.179-7.453a.659.659,0,0,1,1.2,0Zm-11.5,21.055L8.446,28.854l16.44,8.637,16.464-8.656-6.041-3.16-.374-1.639,7.017,3.606,5.178-4.9-9.163-4.984.948-.82h0l.147-.137L48.8,21.941a.6.6,0,0,1,.156.114.635.635,0,0,1,0,.891l-5.685,5.562,5.482,6.552a.625.625,0,0,1-.081.886.6.6,0,0,1-.128.085l-4.918,2.611V48.4a.64.64,0,0,1-.393.583l-17.791,9.03a.64.64,0,0,1-.474.208.63.63,0,0,1-.564-.351L6.575,48.961a.64.64,0,0,1-.346-.564V38.689L1.216,36.041a1,1,0,0,1-.128-.085.63.63,0,0,1-.081-.9l5.34-6.382L.155,22.808a.63.63,0,0,1,.057-.891.947.947,0,0,1,.123-.085l9.438-5.34a3.79,3.79,0,0,0,.4.422h0l.72.616-9,5.117,5.638,5.212,6.5-3.222Zm28.9,3.359-16.8,8.831,3.52,6.079,17.658-9.6-4.378-5.306Z" transform="translate(436.341 11673.799)" fill="#0351fc"/>
  </g>
</svg>
