<svg xmlns="http://www.w3.org/2000/svg" width="106" height="106" viewBox="0 0 106 106">
  <g id="Group_21894" data-name="Group 21894" transform="translate(-407.908 -11649.908)">
    <circle id="Ellipse_3" data-name="Ellipse 3" cx="53" cy="53" r="53" transform="translate(407.908 11649.908)" fill="rgba(0,50,210,0.1)"/>
    <g id="registration-icon" transform="translate(437.472 11676.826)">
      <path id="Path_41804" data-name="Path 41804" d="M20.577,49.4a1.384,1.384,0,1,1,0,2.768H3.226a3.216,3.216,0,0,1-2.28-.947A3.191,3.191,0,0,1,0,48.941V3.226A3.232,3.232,0,0,1,3.226,0H42.836a3.232,3.232,0,0,1,3.226,3.226v22.9a1.384,1.384,0,1,1-2.768,0V3.226a.439.439,0,0,0-.136-.318.454.454,0,0,0-.318-.136H3.226A.471.471,0,0,0,2.9,2.9a.479.479,0,0,0-.132.323V48.941a.439.439,0,0,0,.136.318.456.456,0,0,0,.323.136ZM14.409,24.589a2.265,2.265,0,0,1,.492-2.212c1.613-.942,3.838-.65,5.392-1.736a4.252,4.252,0,0,0,.284-.548c.14-.323.272-.675.352-.917a11.257,11.257,0,0,1-.921-1.316l-.934-1.486a2.756,2.756,0,0,1-.531-1.359,1.079,1.079,0,0,1,.093-.488.854.854,0,0,1,.323-.374,1.02,1.02,0,0,1,.225-.115,22.335,22.335,0,0,1-.042-2.675,3.91,3.91,0,0,1,.115-.607,3.563,3.563,0,0,1,1.579-2.012,5.014,5.014,0,0,1,1.325-.59c.3-.085-.255-1.032.055-1.066,1.486-.153,3.885,1.2,4.92,2.322a3.647,3.647,0,0,1,.917,2.293l-.059,2.424h0a.676.676,0,0,1,.492.509,2.072,2.072,0,0,1-.259,1.278h0a.106.106,0,0,1-.017.03L27.145,17.7a9.055,9.055,0,0,1-1.308,1.8c.047.068.1.136.144.2a6.344,6.344,0,0,0,.7.9.129.129,0,0,1,.021.03c1.227.866,4.211,1.078,5.358,1.715l.047.025a2.183,2.183,0,0,1,.5,2.208h-18.2Zm29.017,8.966a1.063,1.063,0,0,0-.781-.314,1.037,1.037,0,0,0-.764.344l-1.719,1.792,4.827,4.661,1.736-1.809a1.13,1.13,0,0,0-.034-1.545l-3.265-3.129ZM35.891,49.319c-.637.2-1.274.412-1.906.62l-1.906.637q-2.248.739-2.518.815c-.17.051-.072-.65.31-2.118l1.193-4.6h0l7.565-7.718,4.823,4.64-7.561,7.722ZM13.475,40.484a1.405,1.405,0,0,1,0-2.81H22.9a1.405,1.405,0,0,1,0,2.81Zm0-8.784a1.386,1.386,0,0,1,0-2.772h18.7a1.386,1.386,0,0,1,0,2.772Z" fill="#0351fc"/>
    </g>
  </g>
</svg>
