<svg xmlns="http://www.w3.org/2000/svg" width="106" height="106" viewBox="0 0 106 106">
  <g id="Group_21894" data-name="Group 21894" transform="translate(-407.908 -11649.908)">
    <circle id="Ellipse_3" data-name="Ellipse 3" cx="53" cy="53" r="53" transform="translate(407.908 11649.908)" fill="rgba(0,50,210,0.1)"/>
    <path id="home-address-icon" d="M35.011,37.158a30.9,30.9,0,0,1-6.785,5.616.952.952,0,0,1-1.09.035,38.257,38.257,0,0,1-9.42-8.424,29.782,29.782,0,0,1-6.369-13.7A18.206,18.206,0,0,1,13.623,7.861a15.847,15.847,0,0,1,3.512-3.875A17.049,17.049,0,0,1,27.9,0,15.16,15.16,0,0,1,38.089,4.167a15.213,15.213,0,0,1,2.724,3.317c2.5,4.119,3.038,9.372,1.94,14.7a32.331,32.331,0,0,1-7.759,14.97h0ZM11.214,33.3a1.59,1.59,0,1,1,0,3.176H8.229L4.3,49.16H50.011l-4.265-12.7H43.279a1.59,1.59,0,1,1,0-3.176h4.739l6.4,19.044H0L5.9,33.287ZM27.185,7.5l-9.429,8.946,2.214,1.169,7.153-7.184,7.259,7.184L36.6,16.448ZM20.767,18.893h0l6.426-6.426L33.6,18.893h0V25.2H28.921V20.771H25.409V25.2H20.767Z" transform="translate(433.697 11676.743)" fill="#0351fc" fill-rule="evenodd"/>
  </g>
</svg>
