<svg xmlns="http://www.w3.org/2000/svg" width="106" height="106" viewBox="0 0 106 106">
  <g id="Group_21894" data-name="Group 21894" transform="translate(-407.908 -11649.908)">
    <circle id="Ellipse_3" data-name="Ellipse 3" cx="53" cy="53" r="53" transform="translate(407.908 11649.908)" fill="rgba(0,50,210,0.1)"/>
    <g id="increase-graph-profit-icon" transform="translate(436.908 11679.908)">
      <path id="Path_41805" data-name="Path 41805" d="M42.977,7.539V41.183H.737v4.88H45.415a2.443,2.443,0,0,0,2.442-2.442V7.539ZM32.021,6.915l.405,3.17a1.784,1.784,0,1,0,3.54-.448l-1.032-8.03a1.783,1.783,0,0,0-2.418-1.5L24.781,3.091a1.783,1.783,0,0,0,1.285,3.326L28.707,5.4a42.018,42.018,0,0,1-10.1,9.76A35.056,35.056,0,0,1,1.66,21.407a1.786,1.786,0,0,0,.253,3.563,38.542,38.542,0,0,0,18.705-6.854,45.656,45.656,0,0,0,11.4-11.2ZM2.875,33.355v4.377H8.409V33.355Zm9.892-4.607v8.985H18.3V28.748Zm9.888-3.17V37.733h5.53V25.578Zm9.888-4.829V37.733h5.534V20.749Z" transform="translate(0 0.008)" fill="#0351fc"/>
    </g>
  </g>
</svg>
