<svg xmlns="http://www.w3.org/2000/svg" width="114" height="114" viewBox="0 0 114 114">
  <g id="Group_20772" data-name="Group 20772" transform="translate(-408.023 -11650.023)">
    <circle id="Ellipse_3" data-name="Ellipse 3" cx="57" cy="57" r="57" transform="translate(408.023 11650.023)" fill="rgba(0,50,210,0.1)"/>
    <g id="holiday-vacation-icon" transform="translate(429.023 11683.023)">
      <path id="Path_41766" data-name="Path 41766" d="M14.314,31.162V46.652h2.065l2.72-2.987H17.654V41.839H22.12l-5.034-5.585,1.357-1.218,3.051,3.375v-.133h7.464a.919.919,0,0,1,.777.435l2.2,3.12h4.147a.921.921,0,0,1,.69.313l4.541,4.5h7.656c3.642-10.555,6.078-22.7,2.935-32.205C46.27,17,44.918,23.471,44.24,31.335h0c-2.2-5.452-3.573-10.428-.47-16.053-2.964.319-5.747,2.076-8.705,4.785,2.447-5.237,6.409-9.221,13.478-8.322-3.938-2.639-8.612-2.2-13.125-1.143,4.7-4.947,9.8-7.029,15.914-1.409C51.536,5.8,50.121,2.842,48.259,0c3.967,1.572,6.931,3.3,6,10.474,6.768-5.718,14.348-3.294,17,6.722-4.959-4.39-10.248-6.617-15.891-4.872,9.865,3.694,12.5,9.378,8.351,17.126-2.964-7.47-6.055-12.179-9.523-14.366,2.186,5.51,4.013,14.754.481,31.562h9.129V48.74H0V46.647H12.353V31.162H.829a.713.713,0,0,1-.713-.713.282.282,0,0,1,.006-.07,12.783,12.783,0,0,1,3.886-9.071,13.307,13.307,0,0,1,9.111-3.77.715.715,0,0,1,.441,0,13.3,13.3,0,0,1,9.059,3.77,12.806,12.806,0,0,1,3.886,9.14.7.7,0,0,1-.708.708v.006ZM20.925,3.828a.455.455,0,0,1,.789-.452l.58,1.009a.45.45,0,0,1-.168.621.455.455,0,0,1-.621-.162l-.58-1.015Zm3.625,1.5a4.059,4.059,0,1,1-2.871,1.189A4.036,4.036,0,0,1,24.55,5.324Zm-.36-2.563a.458.458,0,0,1,.916,0V3.926a.458.458,0,0,1-.916,0V2.761Zm3.364.708a.453.453,0,0,1,.621-.162.46.46,0,0,1,.168.621l-.58,1.009a.46.46,0,0,1-.621.168.453.453,0,0,1-.162-.621l.574-1.015Zm2.552,2.3a.45.45,0,0,1,.621.168.457.457,0,0,1-.168.621l-1,.58a.455.455,0,0,1-.452-.789l1-.58Zm1.067,3.259a.458.458,0,1,1,0,.916H30.007a.458.458,0,0,1,0-.916Zm-.708,3.364a.455.455,0,1,1-.452.789L29,12.6a.454.454,0,1,1,.458-.783l1,.574ZM28.175,14.94a.455.455,0,0,1-.789.452l-.58-1.009a.455.455,0,0,1,.789-.452l.58,1.009Zm-3.265,1.067a.459.459,0,0,1-.458.458A.454.454,0,0,1,24,16.007V14.841a.455.455,0,1,1,.911,0v1.166ZM21.546,15.3a.453.453,0,0,1-.621.162.46.46,0,0,1-.168-.621l.58-1.009a.46.46,0,0,1,.621-.168.453.453,0,0,1,.162.621L21.546,15.3Zm-2.552-2.291a.45.45,0,0,1-.621-.168.455.455,0,0,1,.162-.621l1.009-.58a.455.455,0,1,1,.452.789l-1,.58ZM17.927,9.743a.458.458,0,1,1,0-.916h1.166a.458.458,0,1,1,0,.916Zm.708-3.358a.455.455,0,1,1,.452-.789l1.009.58a.454.454,0,0,1-.458.783l-1-.574Zm.209,40.267H38.718L35.7,43.666H21.563l-2.72,2.987Zm5.73-4.82h5.121L28.476,40.1H23.013l1.56,1.728Zm-2.94-19.51a11.831,11.831,0,0,0-3.346-2.291A10.945,10.945,0,0,1,19.5,22.4a21.787,21.787,0,0,1,1.183,7.342H25.06a11.382,11.382,0,0,0-3.428-7.418Zm-6.24-3.184a12.726,12.726,0,0,0-1.346-.157V29.746h5.225a20.33,20.33,0,0,0-1.1-6.838,7.343,7.343,0,0,0-2.784-3.77Zm-2.766-.162c-.447.029-.893.075-1.322.145a7.369,7.369,0,0,0-2.813,3.8,20.522,20.522,0,0,0-1.085,6.815h5.225V18.976ZM8.421,20A11.732,11.732,0,0,0,5,22.329a11.415,11.415,0,0,0-3.433,7.412H5.991a21.966,21.966,0,0,1,1.172-7.313A10.438,10.438,0,0,1,8.421,20Z" fill="#0351fc"/>
    </g>
  </g>
</svg>
